<svg xmlns="http://www.w3.org/2000/svg" width="22.5" height="15.996" viewBox="0 0 22.5 15.996"><defs><style>.a{fill:#fff;}</style></defs><path class="a" d="M21.75,55.7V53.446h0a1.226,1.226,0,0,0-.834-1.248L16.3,51.048a1.328,1.328,0,0,1-.554-.329,1.593,1.593,0,0,1-.393-.561l-.643-1.532a1.337,1.337,0,0,0-1.282-.766H11.812l-.75-1.5-.187-.375H9l-.187.375-.75,1.5H6.9a2.115,2.115,0,0,0-1.507.529L3.375,50.567l-.278.3a2.186,2.186,0,0,1-1.222.6l-.188,0a1.233,1.233,0,0,0-1.064,1.1L.282,56.087c0,.014,0,.028,0,.041A1.363,1.363,0,0,0,0,56.94v.932A1.691,1.691,0,0,0,1.4,59.41a2.993,2.993,0,0,0,5.914.075h7.021a2.993,2.993,0,0,0,5.9,0h.307A1.81,1.81,0,0,0,22.5,57.873V56.94A1.492,1.492,0,0,0,21.75,55.7Zm-6-.34v1.054a2.952,2.952,0,0,0-1.288,1.571H7.182a2.984,2.984,0,0,0-3.807-1.827V51.121h0l2.289-2.479a1.777,1.777,0,0,1,1.23-.406h6.537a.971.971,0,0,1,.935.531l.642,1.532a2.013,2.013,0,0,0,.741.9V55.36Z" transform="translate(0 -45.985)"/><path class="a" d="M74.233,90.278v.375c0,1.035.09,1.875,1.125,1.875h2.625V88.4H76.108A1.875,1.875,0,0,0,74.233,90.278Z" transform="translate(-68.983 -85.403)"/><path class="a" d="M145.415,88.4h-2.25v4.125h3c1.036,0,1.125-.84,1.125-1.875v-.375A1.875,1.875,0,0,0,145.415,88.4Z" transform="translate(-133.04 -85.403)"/></svg>