<?xml version="1.0" encoding="UTF-8" standalone="no"?>
<!-- Created with Inkscape (http://www.inkscape.org/) -->

<svg
   xmlns:dc="http://purl.org/dc/elements/1.1/"
   xmlns:cc="http://creativecommons.org/ns#"
   xmlns:rdf="http://www.w3.org/1999/02/22-rdf-syntax-ns#"
   xmlns:svg="http://www.w3.org/2000/svg"
   xmlns="http://www.w3.org/2000/svg"
   xmlns:sodipodi="http://sodipodi.sourceforge.net/DTD/sodipodi-0.dtd"
   xmlns:inkscape="http://www.inkscape.org/namespaces/inkscape"
   width="55.000004"
   height="50.000004"
   viewBox="0 0 14.552084 13.229168"
   version="1.1"
   id="svg8"
   inkscape:version="0.92.3 (2405546, 2018-03-11)"
   sodipodi:docname="frota-geral.svg">
  <defs
     id="defs2">
    <style
       id="style819">.a{fill:#fff;}</style>
  </defs>
  <sodipodi:namedview
     id="base"
     pagecolor="#ffffff"
     bordercolor="#666666"
     borderopacity="1.0"
     inkscape:pageopacity="0.0"
     inkscape:pageshadow="2"
     inkscape:zoom="11.2"
     inkscape:cx="19.580486"
     inkscape:cy="30.012742"
     inkscape:document-units="mm"
     inkscape:current-layer="layer1"
     showgrid="false"
     units="px"
     fit-margin-top="0"
     fit-margin-left="0"
     fit-margin-right="0"
     fit-margin-bottom="0"
     showguides="false"
     inkscape:window-width="1920"
     inkscape:window-height="1015"
     inkscape:window-x="0"
     inkscape:window-y="0"
     inkscape:window-maximized="1" />
  <metadata
     id="metadata5">
    <rdf:RDF>
      <cc:Work
         rdf:about="">
        <dc:format>image/svg+xml</dc:format>
        <dc:type
           rdf:resource="http://purl.org/dc/dcmitype/StillImage" />
        <dc:title></dc:title>
      </cc:Work>
    </rdf:RDF>
  </metadata>
  <g
     inkscape:label="Camada 1"
     inkscape:groupmode="layer"
     id="layer1"
     transform="translate(0.01670485,-283.77014)"
     style="display:inline">
    <path
       style="fill:#ffffff;fill-opacity:1;stroke:#000000;stroke-width:0;stroke-linecap:round;stroke-linejoin:bevel;stroke-miterlimit:4;stroke-dasharray:none;stroke-opacity:1"
       d="m 7.8895283,295.82592 c -0.03964,-0.01 -0.08828,-0.0242 -0.108102,-0.032 -0.01982,-0.008 -0.08265,-0.0321 -0.139632,-0.0541 -0.312498,-0.12031 -0.584838,-0.4176 -0.725909,-0.79241 -0.04615,-0.12262 -0.05765,-0.56839 -0.01862,-0.7219 0.09381,-0.36901 0.361239,-0.69094 0.713001,-0.85831 0.19453,-0.0926 0.324571,-0.11646 0.588157,-0.10811 0.127388,0.004 0.253911,0.0136 0.281162,0.0212 0.03655,0.0102 0.04965,0.007 0.04995,-0.0108 2.2e-4,-0.0135 0.01625,-0.0449 0.03563,-0.0697 0.05203,-0.0665 0.04402,-0.11297 -0.03153,-0.18265 -0.120683,-0.11131 -0.178005,-0.12364 -0.574818,-0.12364 -0.209891,0 -0.38088,-0.008 -0.421107,-0.0203 -0.20434,-0.0612 -0.267667,-0.29654 -0.117192,-0.43547 0.08852,-0.0817 0.12657,-0.0872 0.552319,-0.0787 0.39056,0.008 0.569124,0.0242 0.70043,0.0644 0.131766,0.0403 0.300093,0.14056 0.40403,0.24055 l 0.107888,0.10379 0.743078,-0.005 0.7430787,-0.005 -0.07116,-0.11192 c -0.03914,-0.0616 -0.07116,-0.11947 -0.07116,-0.12869 0,-0.0326 -0.0605,-0.0387 -0.387991,-0.0387 -0.1996157,0 -0.3480257,-0.008 -0.3739057,-0.0195 -0.07075,-0.0322 -0.102919,-0.10779 -0.102919,-0.2417 0,-0.14942 0.0356,-0.21838 0.125659,-0.2434 0.07863,-0.0218 0.8311277,-0.0228 0.9242547,-10e-4 0.0774,0.018 0.169839,0.10869 0.222259,0.21812 0.01873,0.0391 0.04014,0.0712 0.04757,0.0713 0.0074,1.2e-4 0.01351,0.008 0.01351,0.0186 0,0.0349 0.09383,0.16688 0.105449,0.14826 0.01106,-0.0177 0.160684,-0.18699 0.31795,-0.3597 0.09009,-0.0989 0.143352,-0.11226 0.450425,-0.11269 0.284715,-4e-4 0.350354,0.0156 0.422605,0.1033 l 0.05485,0.0665 v 0.25639 0.25638 l -0.06928,0.0728 -0.06928,0.0728 h -0.453517 -0.453518 l 0.04478,0.0856 c 0.02463,0.0471 0.09165,0.1626 0.148943,0.25674 0.09811,0.16121 0.107308,0.1708 0.158216,0.16483 0.02973,-0.003 0.06771,-0.0136 0.0844,-0.0225 0.05277,-0.0281 0.468927,-0.0191 0.594289,0.013 0.450833,0.11519 0.838874,0.5073 0.941976,0.95186 0.05137,0.22153 0.02695,0.64223 -0.04476,0.77091 -0.0096,0.0172 -0.01743,0.0436 -0.01743,0.0585 0,0.015 -0.0081,0.0273 -0.01802,0.0273 -0.0099,0 -0.01802,0.0162 -0.01802,0.036 0,0.0198 -0.0081,0.036 -0.01802,0.036 -0.0099,0 -0.01802,0.009 -0.01802,0.0193 0,0.0636 -0.332029,0.43115 -0.389528,0.43115 -0.01368,0 -0.02486,0.007 -0.02486,0.0158 0,0.0148 -0.157994,0.0987 -0.247734,0.13153 -0.0223,0.008 -0.05878,0.022 -0.08108,0.0308 -0.18752,0.0741 -0.574411,0.0746 -0.761218,9.7e-4 -0.01982,-0.008 -0.07564,-0.0285 -0.124043,-0.046 -0.196014,-0.0708 -0.436118,-0.26394 -0.568761,-0.45746 -0.07089,-0.10343 -0.163002,-0.29038 -0.163002,-0.33084 0,-0.0129 -0.006,-0.0294 -0.01323,-0.0367 -0.04955,-0.0495 -0.07464,-0.43475 -0.03967,-0.60896 0.034,-0.1694 0.164783,-0.48269 0.201543,-0.4828 0.0074,-2e-5 0.0137,-0.0102 0.01392,-0.0226 2.25e-4,-0.0124 0.04482,-0.0706 0.09909,-0.12943 0.05428,-0.0588 0.0985,-0.11556 0.09828,-0.12612 -2.21e-4,-0.0106 -0.01625,-0.0395 -0.03563,-0.0642 -0.01938,-0.0248 -0.03541,-0.0552 -0.03563,-0.0676 -2.21e-4,-0.0124 -0.0071,-0.0225 -0.01523,-0.0225 -0.01205,0 -0.1401,0.12392 -0.229556,0.22217 -0.02472,0.0271 -0.136664,0.2058 -0.165606,0.26429 -0.0449,0.0907 -0.112498,0.29845 -0.112498,0.34568 0,0.0267 -0.0081,0.0536 -0.01802,0.0597 -0.0102,0.006 -0.01802,0.0951 -0.01802,0.20465 0,0.17979 -0.0035,0.19885 -0.04874,0.26868 -0.0268,0.0413 -0.06126,0.0815 -0.07657,0.0892 -0.01531,0.008 -0.238607,0.0181 -0.4962187,0.023 l -0.468383,0.009 -0.02296,0.0702 c -0.08364,0.25553 -0.258024,0.49109 -0.481629,0.65059 -0.112531,0.0803 -0.286615,0.1711 -0.327922,0.1711 -0.01314,0 -0.03798,0.007 -0.05518,0.0159 -0.106875,0.0543 -0.481392,0.074 -0.643863,0.0338 z m 0.396374,-0.51147 c 0.112863,-0.0148 0.299265,-0.10221 0.389712,-0.18274 0.06535,-0.0582 0.177823,-0.20762 0.177823,-0.23624 0,-0.0143 -0.128557,-0.0201 -0.441416,-0.0201 h -0.441416 l -0.07207,-0.0721 c -0.06434,-0.0643 -0.07207,-0.0815 -0.07207,-0.15977 0,-0.089 0.01232,-0.1181 0.186233,-0.43946 0.09228,-0.17052 0.109754,-0.20126 0.120238,-0.21153 0.01409,-0.0138 0.10792,-0.20593 0.10792,-0.22097 0,-0.007 -0.02617,-0.0132 -0.05814,-0.0132 -0.08143,0 -0.33823,0.057 -0.33823,0.0751 0,0.008 -0.01621,0.0149 -0.03603,0.0149 -0.01982,0 -0.03603,0.008 -0.03603,0.018 0,0.01 -0.01054,0.018 -0.02343,0.018 -0.01288,0 -0.06948,0.0446 -0.125769,0.0991 -0.09832,0.0952 -0.154218,0.18013 -0.207565,0.31527 -0.03428,0.0868 -0.03827,0.41072 -0.0059,0.47922 0.14354,0.30378 0.243782,0.40321 0.515807,0.51165 0.06227,0.0248 0.214652,0.0502 0.252238,0.042 0.01982,-0.004 0.06846,-0.0121 0.108102,-0.0173 z m 3.9687117,-0.0228 c 0.01708,-0.009 0.07565,-0.0382 0.130152,-0.0654 0.11292,-0.0565 0.264908,-0.20767 0.321557,-0.31985 0.08758,-0.17343 0.108381,-0.39027 0.05483,-0.5715 -0.05454,-0.18455 -0.229681,-0.40045 -0.391603,-0.48272 -0.140566,-0.0714 -0.392042,-0.11492 -0.450443,-0.0779 -0.01936,0.0123 -0.01483,0.0303 0.02252,0.0895 0.02572,0.0407 0.04677,0.0782 0.04677,0.0833 0,0.005 0.03648,0.0661 0.08108,0.13567 0.04459,0.0696 0.08108,0.13451 0.08108,0.14432 0,0.01 0.0081,0.0178 0.01802,0.0178 0.0099,0 0.01802,0.009 0.01802,0.0194 0,0.0106 0.03461,0.0735 0.0769,0.13963 0.13644,0.21339 0.14941,0.27326 0.07766,0.35853 -0.02399,0.0285 -0.0766,0.0676 -0.116904,0.087 -0.0403,0.0193 -0.07337,0.0412 -0.07348,0.0486 -1.08e-4,0.007 -0.03573,0.0135 -0.07915,0.0135 -0.065,0 -0.08886,-0.0102 -0.135128,-0.0575 -0.0309,-0.0316 -0.05619,-0.0681 -0.05619,-0.0811 0,-0.013 -0.0081,-0.0236 -0.01802,-0.0236 -0.0099,0 -0.01802,-0.008 -0.01802,-0.0178 0,-0.01 -0.03649,-0.0748 -0.08108,-0.14432 -0.04459,-0.0696 -0.08108,-0.13031 -0.08108,-0.13497 0,-0.005 -0.02838,-0.0528 -0.06306,-0.10705 -0.03468,-0.0542 -0.06306,-0.10707 -0.06306,-0.11746 0,-0.0104 -0.0061,-0.0189 -0.01362,-0.0189 -0.0075,0 -0.02387,-0.0223 -0.0364,-0.0496 -0.01253,-0.0272 -0.03465,-0.0651 -0.04915,-0.0841 -0.02438,-0.032 -0.02878,-0.0324 -0.05819,-0.005 -0.02795,0.0256 -0.06591,0.0933 -0.137549,0.24547 -0.01189,0.0252 -0.01937,0.12666 -0.01796,0.24323 0.0022,0.18407 0.0068,0.20868 0.05724,0.31012 0.110129,0.22138 0.337174,0.40354 0.55068,0.44183 0.08947,0.016 0.360131,0.004 0.403572,-0.0186 z"
       id="path887"
       inkscape:connector-curvature="0" />
  </g>
  <g
     inkscape:groupmode="layer"
     id="layer2"
     inkscape:label="imagens"
     style="display:inline"
     transform="translate(0.01670485,6.7889844e-4)">
    <g
       style="display:inline"
       id="g839"
       transform="matrix(0.29776342,0,0,0.29776342,0.89077435,1.0183661)">
      <path
         id="path823"
         transform="translate(0,-45.985)"
         d="m 21.75,55.7 v -2.254 0 A 1.226,1.226 0 0 0 20.916,52.198 L 16.3,51.048 A 1.328,1.328 0 0 1 15.746,50.719 1.593,1.593 0 0 1 15.353,50.158 L 14.71,48.626 A 1.337,1.337 0 0 0 13.428,47.86 h -1.616 l -0.75,-1.5 -0.187,-0.375 H 9 l -0.187,0.375 -0.75,1.5 H 6.9 a 2.115,2.115 0 0 0 -1.507,0.529 l -2.018,2.178 -0.278,0.3 a 2.186,2.186 0 0 1 -1.222,0.6 H 1.687 a 1.233,1.233 0 0 0 -1.064,1.1 l -0.341,3.52 c 0,0.014 0,0.028 0,0.041 A 1.363,1.363 0 0 0 0,56.94 v 0.932 a 1.691,1.691 0 0 0 1.4,1.538 2.993,2.993 0 0 0 5.914,0.075 h 7.021 a 2.993,2.993 0 0 0 5.9,0 h 0.307 A 1.81,1.81 0 0 0 22.5,57.873 V 56.94 A 1.492,1.492 0 0 0 21.75,55.7 Z m -6,-0.34 v 1.054 a 2.952,2.952 0 0 0 -1.288,1.571 H 7.182 A 2.984,2.984 0 0 0 3.375,56.158 v -5.037 0 l 2.289,-2.479 a 1.777,1.777 0 0 1 1.23,-0.406 h 6.537 a 0.971,0.971 0 0 1 0.935,0.531 l 0.642,1.532 a 2.013,2.013 0 0 0 0.741,0.9 v 4.161 z"
         class="a"
         inkscape:connector-curvature="0"
         style="fill:#ffffff" />
      <path
         id="path825"
         transform="translate(-68.983,-85.403)"
         d="m 74.233,90.278 v 0.375 c 0,1.035 0.09,1.875 1.125,1.875 h 2.625 V 88.4 h -1.875 a 1.875,1.875 0 0 0 -1.875,1.878 z"
         class="a"
         inkscape:connector-curvature="0"
         style="fill:#ffffff" />
      <path
         id="path827"
         transform="translate(-133.04,-85.403)"
         d="m 145.415,88.4 h -2.25 v 4.125 h 3 c 1.036,0 1.125,-0.84 1.125,-1.875 V 90.275 A 1.875,1.875 0 0 0 145.415,88.4 Z"
         class="a"
         inkscape:connector-curvature="0"
         style="fill:#ffffff" />
    </g>
  </g>
</svg>
