<?xml version="1.0" encoding="UTF-8" standalone="no"?>
<!-- Created with Inkscape (http://www.inkscape.org/) -->

<svg
   xmlns:dc="http://purl.org/dc/elements/1.1/"
   xmlns:cc="http://creativecommons.org/ns#"
   xmlns:rdf="http://www.w3.org/1999/02/22-rdf-syntax-ns#"
   xmlns:svg="http://www.w3.org/2000/svg"
   xmlns="http://www.w3.org/2000/svg"
   xmlns:sodipodi="http://sodipodi.sourceforge.net/DTD/sodipodi-0.dtd"
   xmlns:inkscape="http://www.inkscape.org/namespaces/inkscape"
   width="55.000004"
   height="50.000004"
   viewBox="0 0 14.552084 13.229168"
   version="1.1"
   id="svg8"
   inkscape:version="0.92.3 (2405546, 2018-03-11)"
   sodipodi:docname="frota-automoveis.svg">
  <defs
     id="defs2">
    <style
       id="style819">.a{fill:#fff;}</style>
  </defs>
  <sodipodi:namedview
     id="base"
     pagecolor="#ffffff"
     bordercolor="#666666"
     borderopacity="1.0"
     inkscape:pageopacity="0.0"
     inkscape:pageshadow="2"
     inkscape:zoom="11.2"
     inkscape:cx="19.4912"
     inkscape:cy="26.441314"
     inkscape:document-units="mm"
     inkscape:current-layer="layer1"
     showgrid="false"
     units="px"
     fit-margin-top="0"
     fit-margin-left="0"
     fit-margin-right="0"
     fit-margin-bottom="0"
     showguides="false"
     inkscape:window-width="1920"
     inkscape:window-height="1015"
     inkscape:window-x="0"
     inkscape:window-y="0"
     inkscape:window-maximized="1" />
  <metadata
     id="metadata5">
    <rdf:RDF>
      <cc:Work
         rdf:about="">
        <dc:format>image/svg+xml</dc:format>
        <dc:type
           rdf:resource="http://purl.org/dc/dcmitype/StillImage" />
        <dc:title></dc:title>
      </cc:Work>
    </rdf:RDF>
  </metadata>
  <g
     inkscape:label="Camada 1"
     inkscape:groupmode="layer"
     id="layer1"
     transform="translate(0.01670485,-283.77014)"
     style="display:inline" />
  <g
     inkscape:groupmode="layer"
     id="layer2"
     inkscape:label="imagens"
     style="display:inline"
     transform="translate(0.01670485,6.7889844e-4)">
    <g
       style="display:inline"
       id="g839"
       transform="matrix(0.50018002,0,0,0.50018002,1.6323119,2.6139062)">
      <path
         id="path823"
         transform="translate(0,-45.985)"
         d="m 21.75,55.7 v -2.254 0 A 1.226,1.226 0 0 0 20.916,52.198 L 16.3,51.048 A 1.328,1.328 0 0 1 15.746,50.719 1.593,1.593 0 0 1 15.353,50.158 L 14.71,48.626 A 1.337,1.337 0 0 0 13.428,47.86 h -1.616 l -0.75,-1.5 -0.187,-0.375 H 9 l -0.187,0.375 -0.75,1.5 H 6.9 a 2.115,2.115 0 0 0 -1.507,0.529 l -2.018,2.178 -0.278,0.3 a 2.186,2.186 0 0 1 -1.222,0.6 H 1.687 a 1.233,1.233 0 0 0 -1.064,1.1 l -0.341,3.52 c 0,0.014 0,0.028 0,0.041 A 1.363,1.363 0 0 0 0,56.94 v 0.932 a 1.691,1.691 0 0 0 1.4,1.538 2.993,2.993 0 0 0 5.914,0.075 h 7.021 a 2.993,2.993 0 0 0 5.9,0 h 0.307 A 1.81,1.81 0 0 0 22.5,57.873 V 56.94 A 1.492,1.492 0 0 0 21.75,55.7 Z m -6,-0.34 v 1.054 a 2.952,2.952 0 0 0 -1.288,1.571 H 7.182 A 2.984,2.984 0 0 0 3.375,56.158 v -5.037 0 l 2.289,-2.479 a 1.777,1.777 0 0 1 1.23,-0.406 h 6.537 a 0.971,0.971 0 0 1 0.935,0.531 l 0.642,1.532 a 2.013,2.013 0 0 0 0.741,0.9 v 4.161 z"
         class="a"
         inkscape:connector-curvature="0"
         style="fill:#ffffff" />
      <path
         id="path825"
         transform="translate(-68.983,-85.403)"
         d="m 74.233,90.278 v 0.375 c 0,1.035 0.09,1.875 1.125,1.875 h 2.625 V 88.4 h -1.875 a 1.875,1.875 0 0 0 -1.875,1.878 z"
         class="a"
         inkscape:connector-curvature="0"
         style="fill:#ffffff" />
      <path
         id="path827"
         transform="translate(-133.04,-85.403)"
         d="m 145.415,88.4 h -2.25 v 4.125 h 3 c 1.036,0 1.125,-0.84 1.125,-1.875 V 90.275 A 1.875,1.875 0 0 0 145.415,88.4 Z"
         class="a"
         inkscape:connector-curvature="0"
         style="fill:#ffffff" />
    </g>
  </g>
</svg>
