<?xml version="1.0" encoding="UTF-8" standalone="no"?>
<!-- Created with Inkscape (http://www.inkscape.org/) -->

<svg
   xmlns:dc="http://purl.org/dc/elements/1.1/"
   xmlns:cc="http://creativecommons.org/ns#"
   xmlns:rdf="http://www.w3.org/1999/02/22-rdf-syntax-ns#"
   xmlns:svg="http://www.w3.org/2000/svg"
   xmlns="http://www.w3.org/2000/svg"
   xmlns:sodipodi="http://sodipodi.sourceforge.net/DTD/sodipodi-0.dtd"
   xmlns:inkscape="http://www.inkscape.org/namespaces/inkscape"
   width="55.000004"
   height="50.000004"
   viewBox="0 0 14.552084 13.229168"
   version="1.1"
   id="svg8"
   inkscape:version="0.92.3 (2405546, 2018-03-11)"
   sodipodi:docname="frota-motos.svg">
  <defs
     id="defs2">
    <style
       id="style819">.a{fill:#fff;}</style>
  </defs>
  <sodipodi:namedview
     id="base"
     pagecolor="#ffffff"
     bordercolor="#666666"
     borderopacity="1.0"
     inkscape:pageopacity="0.0"
     inkscape:pageshadow="2"
     inkscape:zoom="11.2"
     inkscape:cx="3.0626289"
     inkscape:cy="30.012742"
     inkscape:document-units="mm"
     inkscape:current-layer="layer1"
     showgrid="false"
     units="px"
     fit-margin-top="0"
     fit-margin-left="0"
     fit-margin-right="0"
     fit-margin-bottom="0"
     showguides="false"
     inkscape:window-width="1920"
     inkscape:window-height="1015"
     inkscape:window-x="0"
     inkscape:window-y="0"
     inkscape:window-maximized="1" />
  <metadata
     id="metadata5">
    <rdf:RDF>
      <cc:Work
         rdf:about="">
        <dc:format>image/svg+xml</dc:format>
        <dc:type
           rdf:resource="http://purl.org/dc/dcmitype/StillImage" />
        <dc:title></dc:title>
      </cc:Work>
    </rdf:RDF>
  </metadata>
  <g
     inkscape:label="Camada 1"
     inkscape:groupmode="layer"
     id="layer1"
     transform="translate(0.01670485,-283.77014)"
     style="display:inline" />
  <g
     inkscape:groupmode="layer"
     id="layer2"
     inkscape:label="imagens"
     style="display:inline"
     transform="translate(0.01670485,6.7889844e-4)">
    <path
       style="display:inline;fill:#ffffff;fill-opacity:1;stroke:#000000;stroke-width:0;stroke-linecap:round;stroke-linejoin:bevel;stroke-miterlimit:4;stroke-dasharray:none;stroke-opacity:1"
       d="M 3.327084,10.098469 C 3.2557685,10.080478 3.1682618,10.054932 3.1326002,10.040899 3.0969426,10.026507 2.9839069,9.9831489 2.8813921,9.9435689 2.3191847,9.7271217 1.8292249,9.1922748 1.5754274,8.5179637 1.4924002,8.2973609 1.4717108,7.4953875 1.5419287,7.2192116 1.7106999,6.5553349 2.1918247,5.976159 2.8246706,5.6750476 3.1746448,5.5084534 3.4085983,5.4655275 3.8828092,5.4805483 c 0.2291806,0.00718 0.4568047,0.024473 0.5058312,0.03814 0.065754,0.018354 0.089324,0.0126 0.089863,-0.019446 3.958e-4,-0.024273 0.029235,-0.080778 0.064101,-0.125394 C 4.6362118,5.2542116 4.6217995,5.1706087 4.4858818,5.0452471 4.2687654,4.8449934 4.1656374,4.8228096 3.4517415,4.8228096 c -0.3776098,0 -0.6852318,-0.014386 -0.7576033,-0.036523 C 2.3265141,4.6762014 2.2125843,4.2528071 2.4832999,4.0028619 2.6425556,3.8558787 2.711009,3.8459839 3.4769629,3.8612759 c 0.7026468,0.014386 1.0238967,0.043537 1.2601261,0.1158602 0.2370582,0.072501 0.5398895,0.2528793 0.7268801,0.4327672 l 0.1940992,0.1867278 1.3368527,-0.009 1.3368543,-0.00899 L 8.203755,4.3772895 C 8.1333437,4.2664653 8.0757311,4.1623518 8.0757311,4.1457668 c 0,-0.058648 -0.1088464,-0.069624 -0.6980249,-0.069624 -0.3591244,0 -0.6261245,-0.014386 -0.6726846,-0.035081 C 6.5777387,3.9831318 6.5198615,3.847141 6.5198615,3.6062262 c 0,-0.2688161 0.064048,-0.3928822 0.2260687,-0.4378949 0.1414604,-0.039218 1.4952607,-0.041017 1.6628039,-0.0018 0.1392475,0.032377 0.3055508,0.1955411 0.39986,0.3924143 0.033696,0.070345 0.072214,0.1280931 0.085584,0.128275 0.013291,2.16e-4 0.024308,0.014386 0.024308,0.033461 0,0.062788 0.1688066,0.3002301 0.1897104,0.2667293 C 9.1281025,3.9555609 9.3972773,3.6509995 9.6802107,3.340281 9.8422916,3.1623535 9.9381136,3.1383176 10.49056,3.1375438 c 0.512223,-7.196e-4 0.630313,0.028077 0.760297,0.1858446 l 0.09868,0.119637 v 0.461268 0.4612468 l -0.124641,0.1309736 -0.12464,0.1309736 H 10.284344 9.4684314 l 0.080561,0.1540008 c 0.04431,0.084738 0.1648837,0.2925312 0.2679582,0.4618944 0.17651,0.2900277 0.1930554,0.3072807 0.2846444,0.2965426 0.05349,-0.00539 0.121813,-0.024472 0.151841,-0.040478 0.09494,-0.050556 0.843635,-0.03436 1.069171,0.023381 0.811083,0.207235 1.509197,0.9126707 1.694685,1.7124673 0.09242,0.3985488 0.04848,1.1554196 -0.08053,1.3869245 -0.01726,0.030954 -0.03135,0.07844 -0.03135,0.1052446 0,0.026986 -0.01459,0.049114 -0.03241,0.049114 -0.01779,0 -0.03241,0.029136 -0.03241,0.064766 0,0.035624 -0.01459,0.064766 -0.03241,0.064766 -0.01782,0 -0.03241,0.016205 -0.03241,0.034721 0,0.1144217 -0.597345,0.7756712 -0.70079,0.7756712 -0.0246,0 -0.04472,0.0126 -0.04472,0.028441 0,0.02662 -0.284244,0.177567 -0.445692,0.236633 -0.04012,0.01438 -0.105751,0.03958 -0.145869,0.05541 -0.337363,0.133312 -1.033408,0.134211 -1.369487,0.0017 -0.03566,-0.01438 -0.1360824,-0.05128 -0.2231614,-0.08276 C 9.4934083,9.8286029 9.0614428,9.4811291 8.8228076,9.1329723 8.6952703,8.9468927 8.5295559,8.610557 8.5295559,8.5377661 c 0,-0.023216 -0.01078,-0.052894 -0.023809,-0.066026 C 8.4166048,8.3826873 8.3714627,7.6895926 8.4343821,7.3761759 8.4955534,7.0714119 8.730839,6.5077805 8.7969733,6.5075824 c 0.013291,-3.57e-5 0.02464,-0.018354 0.025034,-0.04066 C 8.8224104,6.4445994 8.9026383,6.339907 9.0002751,6.2340672 9.0979291,6.1282803 9.1774844,6.0261642 9.177088,6.0071684 9.1766899,5.9880864 9.147854,5.9361064 9.112986,5.8916686 9.078117,5.8470526 9.049277,5.7923606 9.048884,5.7700507 9.0484867,5.7477277 9.036118,5.7295727 9.021505,5.7295727 c -0.021691,0 -0.2520498,0.2229402 -0.4129894,0.3997004 -0.044476,0.048757 -0.2458679,0.3702495 -0.2979382,0.4754775 -0.08078,0.1631746 -0.2023936,0.5369337 -0.2023936,0.6219038 0,0.048036 -0.014586,0.096431 -0.03241,0.1074041 -0.018357,0.010781 -0.03241,0.1710918 -0.03241,0.3681806 0,0.3234556 -0.0063,0.3577457 -0.087687,0.4833751 -0.048213,0.074301 -0.1102123,0.1466261 -0.1377564,0.1604794 -0.027545,0.014386 -0.4292723,0.032574 -0.8927343,0.041378 L 6.0825218,8.4036756 6.0412164,8.5299697 C 5.890741,8.989687 5.5770121,9.4134771 5.1747298,9.7004296 4.972277,9.8448959 4.6590882,10.008253 4.5847738,10.008253 c -0.023646,0 -0.068328,0.0126 -0.099272,0.0286 -0.192277,0.09769 -0.8660602,0.133129 -1.1583576,0.0608 z M 4.0401905,9.1782961 c 0.2030482,-0.026622 0.5384,-0.1838836 0.701121,-0.3287635 0.11757,-0.1047055 0.3199171,-0.3735239 0.3199171,-0.4250135 0,-0.025729 -0.2312841,-0.036159 -0.7941403,-0.036159 H 3.4729474 L 3.3432867,8.2586459 C 3.2275356,8.1429642 3.2136294,8.1120231 3.2136294,7.9712077 c 0,-0.1601189 0.022158,-0.2124701 0.3350469,-0.7906212 0.1660188,-0.306778 0.1974558,-0.362082 0.2163161,-0.3805584 0.025332,-0.024836 0.1941555,-0.3704832 0.1941555,-0.3975415 0,-0.0126 -0.047083,-0.023745 -0.1045997,-0.023745 -0.1465004,0 -0.6085012,0.1025459 -0.6085012,0.1351108 0,0.014386 -0.029168,0.026821 -0.064822,0.026821 -0.035657,0 -0.064822,0.014386 -0.064822,0.032376 0,0.017991 -0.01895,0.032377 -0.042152,0.032377 -0.023182,0 -0.1250011,0.08024 -0.2262672,0.178288 -0.1768858,0.1712703 -0.2774508,0.3240674 -0.373425,0.5671944 -0.061674,0.1561603 -0.06885,0.7389159 -0.010616,0.8621526 0.25824,0.5465229 0.4385821,0.7254049 0.9279754,0.9204966 0.1120274,0.044616 0.3861748,0.090313 0.453795,0.07556 0.035657,-0.00718 0.1231656,-0.02176 0.1944828,-0.031119 z m 7.1400075,-0.041017 c 0.03072,-0.016205 0.1361,-0.068724 0.234155,-0.1176593 0.203151,-0.1016465 0.47659,-0.3736134 0.578505,-0.5754337 0.157563,-0.3120132 0.194985,-0.702125 0.09864,-1.0281714 -0.09812,-0.3320214 -0.413211,-0.7204413 -0.704521,-0.8684514 -0.252889,-0.1284539 -0.705312,-0.2067497 -0.81038,-0.1401478 -0.03483,0.022124 -0.02669,0.054511 0.04051,0.1610185 0.04627,0.073222 0.08414,0.1406865 0.08414,0.1498637 0,0.009 0.06563,0.1189193 0.145868,0.244079 0.08022,0.1252161 0.145869,0.2419924 0.145869,0.2596423 0,0.017991 0.01459,0.032013 0.03241,0.032013 0.01782,0 0.03241,0.016205 0.03241,0.034903 0,0.019082 0.06227,0.1322303 0.138348,0.2512058 0.245465,0.3839045 0.2688,0.4916151 0.139714,0.645022 -0.04315,0.051273 -0.137809,0.1216179 -0.21032,0.1565208 -0.0725,0.034721 -0.131999,0.074121 -0.132197,0.087436 -1.95e-4,0.0126 -0.06428,0.024274 -0.142397,0.024274 -0.116941,0 -0.159867,-0.018354 -0.243106,-0.1034455 -0.05559,-0.056849 -0.101091,-0.1225174 -0.101091,-0.1459051 0,-0.023381 -0.01459,-0.042459 -0.03241,-0.042459 -0.01782,0 -0.03241,-0.014386 -0.03241,-0.032013 0,-0.017991 -0.06565,-0.1345717 -0.145868,-0.2596422 -0.08022,-0.1252161 -0.145869,-0.2344358 -0.145869,-0.2428225 0,-0.009 -0.05106,-0.094989 -0.113449,-0.1925912 C 9.974359,7.3370061 9.9232996,7.2418876 9.9232996,7.223196 c 0,-0.018718 -0.01098,-0.034003 -0.02451,-0.034003 -0.01349,0 -0.04294,-0.040118 -0.06549,-0.089235 -0.02256,-0.048935 -0.062335,-0.1171203 -0.088425,-0.1513024 -0.043864,-0.05757 -0.051774,-0.058291 -0.1046885,-0.009 -0.050286,0.046057 -0.1185786,0.1678543 -0.2474626,0.4416191 -0.021394,0.045336 -0.034851,0.2278711 -0.032305,0.4375889 0.00394,0.3311559 0.012232,0.375431 0.1029787,0.557929 0.1981301,0.3982793 0.6065998,0.7259988 0.9907138,0.7948853 0.160962,0.028772 0.647901,0.00718 0.726055,-0.033464 z"
       id="path887"
       inkscape:connector-curvature="0" />
  </g>
</svg>
